{
  "accessors": [
    {
      "bufferView": 1,
      "componentType": 5126,
      "count": 65532,
      "max": [
        314.4430236816406,
        354.1090087890625,
        51.388999938964844
      ],
      "min": [
        142.36000061035156,
        94.5840072631836,
        51.38800048828125
      ],
      "type": "VEC3"
    },
    {
      "bufferView": 1,
      "byteOffset": 786384,
      "componentType": 5126,
      "count": 65532,
      "max": [
        0.0,
        0.0,
        1.0
      ],
      "min": [
        -0.7152047157287598,
        -0.00013186084106564522,
        -1.0
      ],
      "type": "VEC3"
    },
    {
      "bufferView": 2,
      "componentType": 5126,
      "count": 65532,
      "max": [
        1.0,
        1.0,
        1.0,
        1.0
      ],
      "min": [
        0.6901960968971252,
        0.6941176652908325,
        0.6901960968971252,
        1.0
      ],
      "type": "VEC4"
    },
    {
      "bufferView": 0,
      "componentType": 5125,
      "count": 318885,
      "type": "SCALAR"
    },
    {
      "bufferView": 1,
      "byteOffset": 1572768,
      "componentType": 5126,
      "count": 65532,
      "max": [
        306.3070068359375,
        354.1090087890625,
        51.388999938964844
      ],
      "min": [
        152.6800079345703,
        94.5840072631836,
        51.38800048828125
      ],
      "type": "VEC3"
    },
    {
      "bufferView": 1,
      "byteOffset": 2359152,
      "componentType": 5126,
      "count": 65532,
      "max": [
        0.7151604294776917,
        0.0001318568247370422,
        1.0
      ],
      "min": [
        0.0,
        0.0,
        -1.0
      ],
      "type": "VEC3"
    },
    {
      "bufferView": 2,
      "byteOffset": 1048512,
      "componentType": 5126,
      "count": 65532,
      "max": [
        1.0,
        1.0,
        1.0,
        1.0
      ],
      "min": [
        1.0,
        1.0,
        1.0,
        1.0
      ],
      "type": "VEC4"
    },
    {
      "bufferView": 0,
      "byteOffset": 1275540,
      "componentType": 5125,
      "count": 311064,
      "type": "SCALAR"
    },
    {
      "bufferView": 1,
      "byteOffset": 3145536,
      "componentType": 5126,
      "count": 65532,
      "max": [
        314.4430236816406,
        354.4000244140625,
        59.54600143432617
      ],
      "min": [
        141.97300720214844,
        94.5840072631836,
        51.388999938964844
      ],
      "type": "VEC3"
    },
    {
      "bufferView": 1,
      "byteOffset": 3931920,
      "componentType": 5126,
      "count": 65532,
      "max": [
        0.9993155598640442,
        1.0,
        1.0
      ],
      "min": [
        -0.9999715685844421,
        -0.9995731711387634,
        -1.0
      ],
      "type": "VEC3"
    },
    {
      "bufferView": 2,
      "byteOffset": 2097024,
      "componentType": 5126,
      "count": 65532,
      "max": [
        1.0,
        1.0,
        1.0,
        1.0
      ],
      "min": [
        0.007843137718737125,
        0.01568627543747425,
        0.003921568859368563,
        1.0
      ],
      "type": "VEC4"
    },
    {
      "bufferView": 0,
      "byteOffset": 2519796,
      "componentType": 5125,
      "count": 256194,
      "type": "SCALAR"
    },
    {
      "bufferView": 1,
      "byteOffset": 4718304,
      "componentType": 5126,
      "count": 65532,
      "max": [
        312.405029296875,
        354.3990173339844,
        196.68701171875
      ],
      "min": [
        141.9720001220703,
        94.60399627685547,
        51.87200164794922
      ],
      "type": "VEC3"
    },
    {
      "bufferView": 1,
      "byteOffset": 5504688,
      "componentType": 5126,
      "count": 65532,
      "max": [
        0.9999968409538269,
        0.999899685382843,
        1.0
      ],
      "min": [
        -0.9999880194664001,
        -0.999794065952301,
        -0.9999487996101379
      ],
      "type": "VEC3"
    },
    {
      "bufferView": 2,
      "byteOffset": 3145536,
      "componentType": 5126,
      "count": 65532,
      "max": [
        1.0,
        1.0,
        1.0,
        1.0
      ],
      "min": [
        0.0,
        0.0,
        0.0,
        1.0
      ],
      "type": "VEC4"
    },
    {
      "bufferView": 0,
      "byteOffset": 3544572,
      "componentType": 5125,
      "count": 258882,
      "type": "SCALAR"
    },
    {
      "bufferView": 1,
      "byteOffset": 6291072,
      "componentType": 5126,
      "count": 65532,
      "max": [
        219.37200927734375,
        238.27801513671875,
        235.94300842285156
      ],
      "min": [
        161.31300354003906,
        108.35700225830078,
        137.44300842285156
      ],
      "type": "VEC3"
    },
    {
      "bufferView": 1,
      "byteOffset": 7077456,
      "componentType": 5126,
      "count": 65532,
      "max": [
        0.9999924898147583,
        0.999968409538269,
        0.9999986886978149
      ],
      "min": [
        -0.9999986886978149,
        -0.9999920725822449,
        -0.9999760985374451
      ],
      "type": "VEC3"
    },
    {
      "bufferView": 2,
      "byteOffset": 4194048,
      "componentType": 5126,
      "count": 65532,
      "max": [
        0.9960784316062927,
        0.9843137264251709,
        0.9686274528503418,
        1.0
      ],
      "min": [
        0.0,
        0.0,
        0.007843137718737125,
        1.0
      ],
      "type": "VEC4"
    },
    {
      "bufferView": 0,
      "byteOffset": 4580100,
      "componentType": 5125,
      "count": 259968,
      "type": "SCALAR"
    },
    {
      "bufferView": 1,
      "byteOffset": 7863840,
      "componentType": 5126,
      "count": 65532,
      "max": [
        261.9380187988281,
        261.85601806640625,
        196.42300415039063
      ],
      "min": [
        177.29600524902344,
        106.8080062866211,
        99.46700286865234
      ],
      "type": "VEC3"
    },
    {
      "bufferView": 1,
      "byteOffset": 8650224,
      "componentType": 5126,
      "count": 65532,
      "max": [
        0.9999908804893494,
        0.9999611377716064,
        0.9999960064888
      ],
      "min": [
        -0.9999507665634155,
        -0.9999827742576599,
        -0.9997668862342834
      ],
      "type": "VEC3"
    },
    {
      "bufferView": 2,
      "byteOffset": 5242560,
      "componentType": 5126,
      "count": 65532,
      "max": [
        0.9882352948188782,
        0.9607843160629272,
        0.9254902005195618,
        1.0
      ],
      "min": [
        0.0,
        0.0,
        0.0,
        1.0
      ],
      "type": "VEC4"
    },
    {
      "bufferView": 0,
      "byteOffset": 5619972,
      "componentType": 5125,
      "count": 268845,
      "type": "SCALAR"
    },
    {
      "bufferView": 1,
      "byteOffset": 9436608,
      "componentType": 5126,
      "count": 65532,
      "max": [
        247.2580108642578,
        251.4130096435547,
        208.54800415039063
      ],
      "min": [
        163.0260009765625,
        123.90000915527344,
        103.47200775146484
      ],
      "type": "VEC3"
    },
    {
      "bufferView": 1,
      "byteOffset": 10222992,
      "componentType": 5126,
      "count": 65532,
      "max": [
        0.9999832510948181,
        0.9999611377716064,
        0.9999813437461853
      ],
      "min": [
        -0.999992847442627,
        -0.9989973902702332,
        -0.9999929070472717
      ],
      "type": "VEC3"
    },
    {
      "bufferView": 2,
      "byteOffset": 6291072,
      "componentType": 5126,
      "count": 65532,
      "max": [
        0.9686274528503418,
        0.9529411792755127,
        0.9176470637321472,
        1.0
      ],
      "min": [
        0.0,
        0.003921568859368563,
        0.0,
        1.0
      ],
      "type": "VEC4"
    },
    {
      "bufferView": 0,
      "byteOffset": 6695352,
      "componentType": 5125,
      "count": 261096,
      "type": "SCALAR"
    },
    {
      "bufferView": 1,
      "byteOffset": 11009376,
      "componentType": 5126,
      "count": 65532,
      "max": [
        307.885009765625,
        215.4610137939453,
        184.0880126953125
      ],
      "min": [
        164.03700256347656,
        95.09400177001953,
        55.83399963378906
      ],
      "type": "VEC3"
    },
    {
      "bufferView": 1,
      "byteOffset": 11795760,
      "componentType": 5126,
      "count": 65532,
      "max": [
        0.9999980330467224,
        0.9999943971633911,
        0.9999999403953552
      ],
      "min": [
        -0.9999883770942688,
        -0.9999991059303284,
        -0.9985930323600769
      ],
      "type": "VEC3"
    },
    {
      "bufferView": 2,
      "byteOffset": 7339584,
      "componentType": 5126,
      "count": 65532,
      "max": [
        0.9607843160629272,
        0.9215686321258545,
        0.929411768913269,
        1.0
      ],
      "min": [
        0.003921568859368563,
        0.0313725508749485,
        0.027450980618596077,
        1.0
      ],
      "type": "VEC4"
    },
    {
      "bufferView": 0,
      "byteOffset": 7739736,
      "componentType": 5125,
      "count": 280428,
      "type": "SCALAR"
    },
    {
      "bufferView": 1,
      "byteOffset": 12582144,
      "componentType": 5126,
      "count": 65532,
      "max": [
        291.60400390625,
        303.4230041503906,
        107.89900207519531
      ],
      "min": [
        146.1060028076172,
        94.83601379394531,
        55.27899932861328
      ],
      "type": "VEC3"
    },
    {
      "bufferView": 1,
      "byteOffset": 13368528,
      "componentType": 5126,
      "count": 65532,
      "max": [
        0.999592661857605,
        0.9999850988388062,
        1.0
      ],
      "min": [
        -0.9999481439590454,
        -0.9999993443489075,
        -0.9989722371101379
      ],
      "type": "VEC3"
    },
    {
      "bufferView": 2,
      "byteOffset": 8388096,
      "componentType": 5126,
      "count": 65532,
      "max": [
        0.8745098114013672,
        0.8941176533699036,
        0.929411768913269,
        1.0
      ],
      "min": [
        0.0,
        0.01568627543747425,
        0.003921568859368563,
        1.0
      ],
      "type": "VEC4"
    },
    {
      "bufferView": 0,
      "byteOffset": 8861448,
      "componentType": 5125,
      "count": 268740,
      "type": "SCALAR"
    },
    {
      "bufferView": 1,
      "byteOffset": 14154912,
      "componentType": 5126,
      "count": 65532,
      "max": [
        301.8270263671875,
        328.5790100097656,
        59.57500076293945
      ],
      "min": [
        142.97900390625,
        208.70701599121094,
        55.87300109863281
      ],
      "type": "VEC3"
    },
    {
      "bufferView": 1,
      "byteOffset": 14941296,
      "componentType": 5126,
      "count": 65532,
      "max": [
        0.9999467134475708,
        0.9976006746292114,
        1.0
      ],
      "min": [
        -0.9998927116394043,
        -0.993085503578186,
        -0.8871745467185974
      ],
      "type": "VEC3"
    },
    {
      "bufferView": 2,
      "byteOffset": 9436608,
      "componentType": 5126,
      "count": 65532,
      "max": [
        0.8901960849761963,
        0.9019607901573181,
        0.9137254953384399,
        1.0
      ],
      "min": [
        0.003921568859368563,
        0.0117647061124444,
        0.0,
        1.0
      ],
      "type": "VEC4"
    },
    {
      "bufferView": 0,
      "byteOffset": 9936408,
      "componentType": 5125,
      "count": 276000,
      "type": "SCALAR"
    },
    {
      "bufferView": 1,
      "byteOffset": 15727680,
      "componentType": 5126,
      "count": 65532,
      "max": [
        294.6180114746094,
        354.3680114746094,
        134.72500610351563
      ],
      "min": [
        142.2270050048828,
        165.31100463867188,
        54.933998107910156
      ],
      "type": "VEC3"
    },
    {
      "bufferView": 1,
      "byteOffset": 16514064,
      "componentType": 5126,
      "count": 65532,
      "max": [
        0.9997375011444092,
        0.9999958276748657,
        0.9999999403953552
      ],
      "min": [
        -0.9999499917030334,
        -0.9999796152114868,
        -0.9982573986053467
      ],
      "type": "VEC3"
    },
    {
      "bufferView": 2,
      "byteOffset": 10485120,
      "componentType": 5126,
      "count": 65532,
      "max": [
        0.9137254953384399,
        0.9058823585510254,
        0.9215686321258545,
        1.0
      ],
      "min": [
        0.0,
        0.0,
        0.0,
        1.0
      ],
      "type": "VEC4"
    },
    {
      "bufferView": 0,
      "byteOffset": 11040408,
      "componentType": 5125,
      "count": 274050,
      "type": "SCALAR"
    },
    {
      "bufferView": 1,
      "byteOffset": 17300448,
      "componentType": 5126,
      "count": 65534,
      "max": [
        307.06500244140625,
        269.1050109863281,
        135.5340118408203
      ],
      "min": [
        142.09201049804688,
        152.21600341796875,
        57.051998138427734
      ],
      "type": "VEC3"
    },
    {
      "bufferView": 1,
      "byteOffset": 18086856,
      "componentType": 5126,
      "count": 65534,
      "max": [
        0.999847412109375,
        0.9999450445175171,
        0.9999999403953552
      ],
      "min": [
        -0.999981701374054,
        -0.9999062418937683,
        -0.9997043609619141
      ],
      "type": "VEC3"
    },
    {
      "bufferView": 2,
      "byteOffset": 11533632,
      "componentType": 5126,
      "count": 65534,
      "max": [
        0.8666666746139526,
        0.8784313797950745,
        0.8980392217636108,
        1.0
      ],
      "min": [
        0.0,
        0.0,
        0.0,
        1.0
      ],
      "type": "VEC4"
    },
    {
      "bufferView": 0,
      "byteOffset": 12136608,
      "componentType": 5125,
      "count": 253395,
      "type": "SCALAR"
    },
    {
      "bufferView": 1,
      "byteOffset": 18873264,
      "componentType": 5126,
      "count": 65532,
      "max": [
        307.06500244140625,
        340.7080078125,
        142.1850128173828
      ],
      "min": [
        205.97300720214844,
        173.40301513671875,
        82.19901275634766
      ],
      "type": "VEC3"
    },
    {
      "bufferView": 1,
      "byteOffset": 19659648,
      "componentType": 5126,
      "count": 65532,
      "max": [
        0.9999967217445374,
        0.9999914169311523,
        0.9999977946281433
      ],
      "min": [
        -0.9999992847442627,
        -0.9999409317970276,
        -0.999990701675415
      ],
      "type": "VEC3"
    },
    {
      "bufferView": 2,
      "byteOffset": 12582176,
      "componentType": 5126,
      "count": 65532,
      "max": [
        0.9686274528503418,
        0.9372549057006836,
        0.9960784316062927,
        1.0
      ],
      "min": [
        0.003921568859368563,
        0.05098039284348488,
        0.019607843831181526,
        1.0
      ],
      "type": "VEC4"
    },
    {
      "bufferView": 0,
      "byteOffset": 13150188,
      "componentType": 5125,
      "count": 247977,
      "type": "SCALAR"
    },
    {
      "bufferView": 1,
      "byteOffset": 20446032,
      "componentType": 5126,
      "count": 65532,
      "max": [
        261.2710266113281,
        354.38201904296875,
        142.0900115966797
      ],
      "min": [
        142.11300659179688,
        175.4610137939453,
        54.233001708984375
      ],
      "type": "VEC3"
    },
    {
      "bufferView": 1,
      "byteOffset": 21232416,
      "componentType": 5126,
      "count": 65532,
      "max": [
        0.9999988079071045,
        0.9999833106994629,
        0.9999997615814209
      ],
      "min": [
        -0.9999693036079407,
        -0.9999576210975647,
        -0.9999833703041077
      ],
      "type": "VEC3"
    },
    {
      "bufferView": 2,
      "byteOffset": 13630688,
      "componentType": 5126,
      "count": 65532,
      "max": [
        0.9921568632125854,
        0.9607843160629272,
        0.9333333373069763,
        1.0
      ],
      "min": [
        0.0,
        0.0,
        0.0,
        1.0
      ],
      "type": "VEC4"
    },
    {
      "bufferView": 0,
      "byteOffset": 14142096,
      "componentType": 5125,
      "count": 259233,
      "type": "SCALAR"
    },
    {
      "bufferView": 1,
      "byteOffset": 22018800,
      "componentType": 5126,
      "count": 65532,
      "max": [
        264.0460205078125,
        354.3730163574219,
        125.79501342773438
      ],
      "min": [
        170.02101135253906,
        171.71600341796875,
        55.76300048828125
      ],
      "type": "VEC3"
    },
    {
      "bufferView": 1,
      "byteOffset": 22805184,
      "componentType": 5126,
      "count": 65532,
      "max": [
        0.9999983310699463,
        0.9999998807907104,
        0.9999997019767761
      ],
      "min": [
        -0.9999681115150452,
        -0.9999576210975647,
        -0.9996132254600525
      ],
      "type": "VEC3"
    },
    {
      "bufferView": 2,
      "byteOffset": 14679200,
      "componentType": 5126,
      "count": 65532,
      "max": [
        0.9960784316062927,
        0.9686274528503418,
        0.9215686321258545,
        1.0
      ],
      "min": [
        0.0,
        0.0,
        0.0,
        1.0
      ],
      "type": "VEC4"
    },
    {
      "bufferView": 0,
      "byteOffset": 15179028,
      "componentType": 5125,
      "count": 241608,
      "type": "SCALAR"
    },
    {
      "bufferView": 1,
      "byteOffset": 23591568,
      "componentType": 5126,
      "count": 65532,
      "max": [
        226.9860076904297,
        339.6200256347656,
        163.9860076904297
      ],
      "min": [
        160.60301208496094,
        179.83401489257813,
        58.11000061035156
      ],
      "type": "VEC3"
    },
    {
      "bufferView": 1,
      "byteOffset": 24377952,
      "componentType": 5126,
      "count": 65532,
      "max": [
        0.9999945759773254,
        0.9989008903503418,
        0.9999995231628418
      ],
      "min": [
        -0.9999880194664001,
        -0.9999363422393799,
        -0.9999995827674866
      ],
      "type": "VEC3"
    },
    {
      "bufferView": 2,
      "byteOffset": 15727712,
      "componentType": 5126,
      "count": 65532,
      "max": [
        0.9411764740943909,
        0.8941176533699036,
        0.9450980424880981,
        1.0
      ],
      "min": [
        0.0313725508749485,
        0.0784313753247261,
        0.054901961237192154,
        1.0
      ],
      "type": "VEC4"
    },
    {
      "bufferView": 0,
      "byteOffset": 16145460,
      "componentType": 5125,
      "count": 256863,
      "type": "SCALAR"
    },
    {
      "bufferView": 1,
      "byteOffset": 25164336,
      "componentType": 5126,
      "count": 65532,
      "max": [
        226.06300354003906,
        340.87701416015625,
        165.41700744628906
      ],
      "min": [
        158.9040069580078,
        200.3140106201172,
        104.13700866699219
      ],
      "type": "VEC3"
    },
    {
      "bufferView": 1,
      "byteOffset": 25950720,
      "componentType": 5126,
      "count": 65532,
      "max": [
        0.9999969601631165,
        0.9999996423721313,
        0.999997079372406
      ],
      "min": [
        -0.9999440908432007,
        -0.9999709129333496,
        -0.9999908804893494
      ],
      "type": "VEC3"
    },
    {
      "bufferView": 2,
      "byteOffset": 16776224,
      "componentType": 5126,
      "count": 65532,
      "max": [
        0.9490196108818054,
        0.9254902005195618,
        0.9490196108818054,
        1.0
      ],
      "min": [
        0.0,
        0.0470588244497776,
        0.04313725605607033,
        1.0
      ],
      "type": "VEC4"
    },
    {
      "bufferView": 0,
      "byteOffset": 17172912,
      "componentType": 5125,
      "count": 253656,
      "type": "SCALAR"
    },
    {
      "bufferView": 1,
      "byteOffset": 26737104,
      "componentType": 5126,
      "count": 65532,
      "max": [
        313.9330139160156,
        340.97601318359375,
        164.04200744628906
      ],
      "min": [
        160.4090118408203,
        158.86500549316406,
        55.83300018310547
      ],
      "type": "VEC3"
    },
    {
      "bufferView": 1,
      "byteOffset": 27523488,
      "componentType": 5126,
      "count": 65532,
      "max": [
        0.9999868869781494,
        0.9999971389770508,
        0.9999993443489075
      ],
      "min": [
        -0.99998939037323,
        -0.999970555305481,
        -0.9999608397483826
      ],
      "type": "VEC3"
    },
    {
      "bufferView": 2,
      "byteOffset": 17824736,
      "componentType": 5126,
      "count": 65532,
      "max": [
        0.9254902005195618,
        0.9058823585510254,
        0.9137254953384399,
        1.0
      ],
      "min": [
        0.0,
        0.0235294122248888,
        0.01568627543747425,
        1.0
      ],
      "type": "VEC4"
    },
    {
      "bufferView": 0,
      "byteOffset": 18187536,
      "componentType": 5125,
      "count": 252699,
      "type": "SCALAR"
    },
    {
      "bufferView": 1,
      "byteOffset": 28309872,
      "componentType": 5126,
      "count": 65533,
      "max": [
        216.9440155029297,
        317.30902099609375,
        164.43600463867188
      ],
      "min": [
        160.5,
        244.61700439453125,
        109.39700317382813
      ],
      "type": "VEC3"
    },
    {
      "bufferView": 1,
      "byteOffset": 29096268,
      "componentType": 5126,
      "count": 65533,
      "max": [
        0.999995768070221,
        0.9982376098632813,
        1.0
      ],
      "min": [
        -0.999994158744812,
        -0.9992309808731079,
        -0.9999995827674866
      ],
      "type": "VEC3"
    },
    {
      "bufferView": 2,
      "byteOffset": 18873248,
      "componentType": 5126,
      "count": 65533,
      "max": [
        0.8823529481887817,
        0.8901960849761963,
        0.9450980424880981,
        1.0
      ],
      "min": [
        0.03921568766236305,
        0.05882352963089943,
        0.0784313753247261,
        1.0
      ],
      "type": "VEC4"
    },
    {
      "bufferView": 0,
      "byteOffset": 19198332,
      "componentType": 5125,
      "count": 234612,
      "type": "SCALAR"
    },
    {
      "bufferView": 1,
      "byteOffset": 29882664,
      "componentType": 5126,
      "count": 65534,
      "max": [
        281.593017578125,
        308.91900634765625,
        162.34800720214844
      ],
      "min": [
        160.67800903320313,
        156.92300415039063,
        55.83300018310547
      ],
      "type": "VEC3"
    },
    {
      "bufferView": 1,
      "byteOffset": 30669072,
      "componentType": 5126,
      "count": 65534,
      "max": [
        0.9999735951423645,
        0.9999561905860901,
        0.9999997019767761
      ],
      "min": [
        -0.9999648928642273,
        -0.9992949366569519,
        -0.9998372793197632
      ],
      "type": "VEC3"
    },
    {
      "bufferView": 2,
      "byteOffset": 19921776,
      "componentType": 5126,
      "count": 65534,
      "max": [
        0.9764705896377563,
        0.9607843160629272,
        0.9333333373069763,
        1.0
      ],
      "min": [
        0.019607843831181526,
        0.01568627543747425,
        0.019607843831181526,
        1.0
      ],
      "type": "VEC4"
    },
    {
      "bufferView": 0,
      "byteOffset": 20136780,
      "componentType": 5125,
      "count": 205311,
      "type": "SCALAR"
    },
    {
      "bufferView": 1,
      "byteOffset": 31455480,
      "componentType": 5126,
      "count": 65532,
      "max": [
        313.9380187988281,
        354.3390197753906,
        164.04200744628906
      ],
      "min": [
        161.7310028076172,
        166.77000427246094,
        55.90700149536133
      ],
      "type": "VEC3"
    },
    {
      "bufferView": 1,
      "byteOffset": 32241864,
      "componentType": 5126,
      "count": 65532,
      "max": [
        0.9999967217445374,
        0.9997641444206238,
        0.9999994039535522
      ],
      "min": [
        -0.9999948740005493,
        -0.9975422024726868,
        -0.9998888969421387
      ],
      "type": "VEC3"
    },
    {
      "bufferView": 2,
      "byteOffset": 20970320,
      "componentType": 5126,
      "count": 65532,
      "max": [
        0.9882352948188782,
        0.9607843160629272,
        0.9254902005195618,
        1.0
      ],
      "min": [
        0.04313725605607033,
        0.04313725605607033,
        0.0470588244497776,
        1.0
      ],
      "type": "VEC4"
    },
    {
      "bufferView": 0,
      "byteOffset": 20958024,
      "componentType": 5125,
      "count": 191805,
      "type": "SCALAR"
    },
    {
      "bufferView": 1,
      "byteOffset": 33028248,
      "componentType": 5126,
      "count": 65532,
      "max": [
        313.6330261230469,
        354.3260192871094,
        165.41700744628906
      ],
      "min": [
        158.9580078125,
        267.3710021972656,
        55.37300109863281
      ],
      "type": "VEC3"
    },
    {
      "bufferView": 1,
      "byteOffset": 33814632,
      "componentType": 5126,
      "count": 65532,
      "max": [
        0.9999998211860657,
        0.9999989867210388,
        0.9999998211860657
      ],
      "min": [
        -0.9998390674591064,
        -0.9999914765357971,
        -0.9999608397483826
      ],
      "type": "VEC3"
    },
    {
      "bufferView": 2,
      "byteOffset": 22018832,
      "componentType": 5126,
      "count": 65532,
      "max": [
        0.9058823585510254,
        0.929411768913269,
        0.9529411792755127,
        1.0
      ],
      "min": [
        0.019607843831181526,
        0.03529411926865578,
        0.03529411926865578,
        1.0
      ],
      "type": "VEC4"
    },
    {
      "bufferView": 0,
      "byteOffset": 21725244,
      "componentType": 5125,
      "count": 179469,
      "type": "SCALAR"
    },
    {
      "bufferView": 1,
      "byteOffset": 34601016,
      "componentType": 5126,
      "count": 65532,
      "max": [
        313.8260192871094,
        340.9350280761719,
        163.8380126953125
      ],
      "min": [
        142.02200317382813,
        221.23800659179688,
        56.6150016784668
      ],
      "type": "VEC3"
    },
    {
      "bufferView": 1,
      "byteOffset": 35387400,
      "componentType": 5126,
      "count": 65532,
      "max": [
        0.9999969601631165,
        0.9999897480010986,
        0.9999999403953552
      ],
      "min": [
        -0.9999344944953918,
        -0.9998744130134583,
        -0.9995504021644592
      ],
      "type": "VEC3"
    },
    {
      "bufferView": 2,
      "byteOffset": 23067344,
      "componentType": 5126,
      "count": 65532,
      "max": [
        0.8588235378265381,
        0.8666666746139526,
        0.8666666746139526,
        1.0
      ],
      "min": [
        0.0,
        0.0,
        0.0,
        1.0
      ],
      "type": "VEC4"
    },
    {
      "bufferView": 0,
      "byteOffset": 22443120,
      "componentType": 5125,
      "count": 183855,
      "type": "SCALAR"
    },
    {
      "bufferView": 1,
      "byteOffset": 36173784,
      "componentType": 5126,
      "count": 65532,
      "max": [
        278.9210205078125,
        331.0610046386719,
        171.39500427246094
      ],
      "min": [
        163.6630096435547,
        105.99099731445313,
        56.00199890136719
      ],
      "type": "VEC3"
    },
    {
      "bufferView": 1,
      "byteOffset": 36960168,
      "componentType": 5126,
      "count": 65532,
      "max": [
        0.9999035596847534,
        0.9999922513961792,
        1.0
      ],
      "min": [
        -0.9999436140060425,
        -0.9999983906745911,
        -0.9999992251396179
      ],
      "type": "VEC3"
    },
    {
      "bufferView": 2,
      "byteOffset": 24115856,
      "componentType": 5126,
      "count": 65532,
      "max": [
        0.8901960849761963,
        0.9098039269447327,
        0.9254902005195618,
        1.0
      ],
      "min": [
        0.0,
        0.0,
        0.0,
        1.0
      ],
      "type": "VEC4"
    },
    {
      "bufferView": 0,
      "byteOffset": 23178540,
      "componentType": 5125,
      "count": 254775,
      "type": "SCALAR"
    },
    {
      "bufferView": 1,
      "byteOffset": 37746552,
      "componentType": 5126,
      "count": 65533,
      "max": [
        268.2740173339844,
        171.7060089111328,
        171.7310028076172
      ],
      "min": [
        161.1890106201172,
        106.02700805664063,
        102.19400787353516
      ],
      "type": "VEC3"
    },
    {
      "bufferView": 1,
      "byteOffset": 38532948,
      "componentType": 5126,
      "count": 65533,
      "max": [
        0.999994158744812,
        0.999990701675415,
        0.9999985098838806
      ],
      "min": [
        -0.9999816417694092,
        -0.9999990463256836,
        -0.9999760985374451
      ],
      "type": "VEC3"
    },
    {
      "bufferView": 2,
      "byteOffset": 25164368,
      "componentType": 5126,
      "count": 65533,
      "max": [
        0.9607843160629272,
        0.9215686321258545,
        0.9333333373069763,
        1.0
      ],
      "min": [
        0.0,
        0.0313725508749485,
        0.0313725508749485,
        1.0
      ],
      "type": "VEC4"
    },
    {
      "bufferView": 0,
      "byteOffset": 24197640,
      "componentType": 5125,
      "count": 286425,
      "type": "SCALAR"
    },
    {
      "bufferView": 1,
      "byteOffset": 39319344,
      "componentType": 5126,
      "count": 65532,
      "max": [
        244.99900817871094,
        186.8660125732422,
        228.74700927734375
      ],
      "min": [
        161.0800018310547,
        106.01100158691406,
        101.29601287841797
      ],
      "type": "VEC3"
    },
    {
      "bufferView": 1,
      "byteOffset": 40105728,
      "componentType": 5126,
      "count": 65532,
      "max": [
        0.9999914169311523,
        0.9999926686286926,
        0.9999765157699585
      ],
      "min": [
        -0.9999843239784241,
        -0.99998939037323,
        -0.9998549818992615
      ],
      "type": "VEC3"
    },
    {
      "bufferView": 2,
      "byteOffset": 26212896,
      "componentType": 5126,
      "count": 65532,
      "max": [
        0.8549019694328308,
        0.929411768913269,
        0.95686274766922,
        1.0
      ],
      "min": [
        0.003921568859368563,
        0.04313725605607033,
        0.03529411926865578,
        1.0
      ],
      "type": "VEC4"
    },
    {
      "bufferView": 0,
      "byteOffset": 25343340,
      "componentType": 5125,
      "count": 214194,
      "type": "SCALAR"
    },
    {
      "bufferView": 1,
      "byteOffset": 40892112,
      "componentType": 5126,
      "count": 65532,
      "max": [
        214.90000915527344,
        191.28500366210938,
        229.5360107421875
      ],
      "min": [
        171.93600463867188,
        142.88400268554688,
        160.6850128173828
      ],
      "type": "VEC3"
    },
    {
      "bufferView": 1,
      "byteOffset": 41678496,
      "componentType": 5126,
      "count": 65532,
      "max": [
        0.9999741315841675,
        0.9999846816062927,
        0.9997925162315369
      ],
      "min": [
        -0.9999920725822449,
        -0.9999522566795349,
        -0.9998688101768494
      ],
      "type": "VEC3"
    },
    {
      "bufferView": 2,
      "byteOffset": 27261408,
      "componentType": 5126,
      "count": 65532,
      "max": [
        0.7568627595901489,
        0.8549019694328308,
        0.8509804010391235,
        1.0
      ],
      "min": [
        0.0235294122248888,
        0.0235294122248888,
        0.0117647061124444,
        1.0
      ],
      "type": "VEC4"
    },
    {
      "bufferView": 0,
      "byteOffset": 26200116,
      "componentType": 5125,
      "count": 230556,
      "type": "SCALAR"
    },
    {
      "bufferView": 1,
      "byteOffset": 42464880,
      "componentType": 5126,
      "count": 65532,
      "max": [
        281.1070251464844,
        209.04501342773438,
        228.75201416015625
      ],
      "min": [
        142.25,
        125.39100646972656,
        54.933998107910156
      ],
      "type": "VEC3"
    },
    {
      "bufferView": 1,
      "byteOffset": 43251264,
      "componentType": 5126,
      "count": 65532,
      "max": [
        0.9999445676803589,
        0.9998237490653992,
        0.9999998807907104
      ],
      "min": [
        -0.9999909996986389,
        -0.9998013973236084,
        -0.9997068643569946
      ],
      "type": "VEC3"
    },
    {
      "bufferView": 2,
      "byteOffset": 28309920,
      "componentType": 5126,
      "count": 65532,
      "max": [
        0.8470588326454163,
        0.886274516582489,
        0.8980392217636108,
        1.0
      ],
      "min": [
        0.0,
        0.0,
        0.0,
        1.0
      ],
      "type": "VEC4"
    },
    {
      "bufferView": 0,
      "byteOffset": 27122340,
      "componentType": 5125,
      "count": 233316,
      "type": "SCALAR"
    },
    {
      "bufferView": 1,
      "byteOffset": 44037648,
      "componentType": 5126,
      "count": 65534,
      "max": [
        280.7920227050781,
        187.04501342773438,
        229.49000549316406
      ],
      "min": [
        182.4250030517578,
        124.78299713134766,
        86.81600189208984
      ],
      "type": "VEC3"
    },
    {
      "bufferView": 1,
      "byteOffset": 44824056,
      "componentType": 5126,
      "count": 65534,
      "max": [
        0.9999997019767761,
        0.9999971985816956,
        0.9998690485954285
      ],
      "min": [
        -0.9998612999916077,
        -0.9999580383300781,
        -0.9997919201850891
      ],
      "type": "VEC3"
    },
    {
      "bufferView": 2,
      "byteOffset": 29358432,
      "componentType": 5126,
      "count": 65534,
      "max": [
        0.929411768913269,
        0.9058823585510254,
        0.9098039269447327,
        1.0
      ],
      "min": [
        0.0,
        0.0,
        0.0117647061124444,
        1.0
      ],
      "type": "VEC4"
    },
    {
      "bufferView": 0,
      "byteOffset": 28055604,
      "componentType": 5125,
      "count": 238362,
      "type": "SCALAR"
    },
    {
      "bufferView": 1,
      "byteOffset": 45610464,
      "componentType": 5126,
      "count": 65532,
      "max": [
        288.1500244140625,
        191.2270050048828,
        229.25201416015625
      ],
      "min": [
        142.48800659179688,
        94.88400268554688,
        55.917999267578125
      ],
      "type": "VEC3"
    },
    {
      "bufferView": 1,
      "byteOffset": 46396848,
      "componentType": 5126,
      "count": 65532,
      "max": [
        0.9999955296516418,
        0.9999798536300659,
        1.0
      ],
      "min": [
        -0.9999244809150696,
        -0.9999763369560242,
        -0.9994248151779175
      ],
      "type": "VEC3"
    },
    {
      "bufferView": 2,
      "byteOffset": 30406976,
      "componentType": 5126,
      "count": 65532,
      "max": [
        0.9960784316062927,
        0.9960784316062927,
        0.9882352948188782,
        1.0
      ],
      "min": [
        0.007843137718737125,
        0.0235294122248888,
        0.003921568859368563,
        1.0
      ],
      "type": "VEC4"
    },
    {
      "bufferView": 0,
      "byteOffset": 29009052,
      "componentType": 5125,
      "count": 271587,
      "type": "SCALAR"
    },
    {
      "bufferView": 1,
      "byteOffset": 47183232,
      "componentType": 5126,
      "count": 65532,
      "max": [
        313.2350158691406,
        198.4110107421875,
        202.2360076904297
      ],
      "min": [
        170.7100067138672,
        94.8550033569336,
        54.93899917602539
      ],
      "type": "VEC3"
    },
    {
      "bufferView": 1,
      "byteOffset": 47969616,
      "componentType": 5126,
      "count": 65532,
      "max": [
        0.9995734095573425,
        0.9999867677688599,
        1.0
      ],
      "min": [
        -0.9998456239700317,
        -0.9998965263366699,
        -0.9865263104438782
      ],
      "type": "VEC3"
    },
    {
      "bufferView": 2,
      "byteOffset": 31455488,
      "componentType": 5126,
      "count": 65532,
      "max": [
        0.8784313797950745,
        0.886274516582489,
        0.8980392217636108,
        1.0
      ],
      "min": [
        0.0,
        0.007843137718737125,
        0.0,
        1.0
      ],
      "type": "VEC4"
    },
    {
      "bufferView": 0,
      "byteOffset": 30095400,
      "componentType": 5125,
      "count": 226290,
      "type": "SCALAR"
    },
    {
      "bufferView": 1,
      "byteOffset": 48756000,
      "componentType": 5126,
      "count": 65532,
      "max": [
        313.8900146484375,
        202.59400939941406,
        202.59901428222656
      ],
      "min": [
        170.8610076904297,
        103.37999725341797,
        53.007999420166016
      ],
      "type": "VEC3"
    },
    {
      "bufferView": 1,
      "byteOffset": 49542384,
      "componentType": 5126,
      "count": 65532,
      "max": [
        0.9999558329582214,
        0.9999589920043945,
        0.9999998211860657
      ],
      "min": [
        -0.9999503493309021,
        -0.9998562932014465,
        -0.9994704723358154
      ],
      "type": "VEC3"
    },
    {
      "bufferView": 2,
      "byteOffset": 32504000,
      "componentType": 5126,
      "count": 65532,
      "max": [
        0.9019607901573181,
        0.9176470637321472,
        0.9254902005195618,
        1.0
      ],
      "min": [
        0.0,
        0.0,
        0.0,
        1.0
      ],
      "type": "VEC4"
    },
    {
      "bufferView": 0,
      "byteOffset": 31000560,
      "componentType": 5125,
      "count": 230448,
      "type": "SCALAR"
    },
    {
      "bufferView": 1,
      "byteOffset": 50328768,
      "componentType": 5126,
      "count": 24883,
      "max": [
        314.0530090332031,
        172.60400390625,
        101.16600799560547
      ],
      "min": [
        159.64801025390625,
        94.88800811767578,
        55.26599884033203
      ],
      "type": "VEC3"
    },
    {
      "bufferView": 1,
      "byteOffset": 50627364,
      "componentType": 5126,
      "count": 24883,
      "max": [
        0.9997668266296387,
        0.9999191761016846,
        0.9999998807907104
      ],
      "min": [
        -0.9994622468948364,
        -0.9999372363090515,
        -0.9922757148742676
      ],
      "type": "VEC3"
    },
    {
      "bufferView": 2,
      "byteOffset": 33552512,
      "componentType": 5126,
      "count": 24883,
      "max": [
        0.8941176533699036,
        0.9098039269447327,
        0.9137254953384399,
        1.0
      ],
      "min": [
        0.019607843831181526,
        0.054901961237192154,
        0.0470588244497776,
        1.0
      ],
      "type": "VEC4"
    },
    {
      "bufferView": 0,
      "byteOffset": 31922352,
      "componentType": 5125,
      "count": 62514,
      "type": "SCALAR"
    }
  ],
  "asset": {
    "extras": {
      "author": "pattarrian (https://sketchfab.com/pattarrian)",
      "license": "CC-BY-4.0 (http://creativecommons.org/licenses/by/4.0/)",
      "source": "https://sketchfab.com/3d-models/albert-einstein-33ba1b5ba92744ec90b032b82d47befb",
      "title": "Albert Einstein"
    },
    "generator": "Sketchfab-12.66.0",
    "version": "2.0"
  },
  "bufferViews": [
    {
      "buffer": 0,
      "byteLength": 32172408,
      "name": "floatBufferViews",
      "target": 34963
    },
    {
      "buffer": 0,
      "byteLength": 50925960,
      "byteOffset": 32172408,
      "byteStride": 12,
      "name": "floatBufferViews",
      "target": 34962
    },
    {
      "buffer": 0,
      "byteLength": 33950640,
      "byteOffset": 83098368,
      "byteStride": 16,
      "name": "floatBufferViews",
      "target": 34962
    }
  ],
  "buffers": [
    {
      "byteLength": 117049008,
      "uri": "scene.bin"
    }
  ],
  "materials": [
    {
      "doubleSided": true,
      "name": "Scene_-_Root",
      "pbrMetallicRoughness": {
        "metallicFactor": 0.0,
        "roughnessFactor": 0.6
      }
    }
  ],
  "meshes": [
    {
      "name": "Object_0",
      "primitives": [
        {
          "attributes": {
            "COLOR_0": 2,
            "NORMAL": 1,
            "POSITION": 0
          },
          "indices": 3,
          "material": 0,
          "mode": 4
        }
      ]
    },
    {
      "name": "Object_1",
      "primitives": [
        {
          "attributes": {
            "COLOR_0": 6,
            "NORMAL": 5,
            "POSITION": 4
          },
          "indices": 7,
          "material": 0,
          "mode": 4
        }
      ]
    },
    {
      "name": "Object_2",
      "primitives": [
        {
          "attributes": {
            "COLOR_0": 10,
            "NORMAL": 9,
            "POSITION": 8
          },
          "indices": 11,
          "material": 0,
          "mode": 4
        }
      ]
    },
    {
      "name": "Object_3",
      "primitives": [
        {
          "attributes": {
            "COLOR_0": 14,
            "NORMAL": 13,
            "POSITION": 12
          },
          "indices": 15,
          "material": 0,
          "mode": 4
        }
      ]
    },
    {
      "name": "Object_4",
      "primitives": [
        {
          "attributes": {
            "COLOR_0": 18,
            "NORMAL": 17,
            "POSITION": 16
          },
          "indices": 19,
          "material": 0,
          "mode": 4
        }
      ]
    },
    {
      "name": "Object_5",
      "primitives": [
        {
          "attributes": {
            "COLOR_0": 22,
            "NORMAL": 21,
            "POSITION": 20
          },
          "indices": 23,
          "material": 0,
          "mode": 4
        }
      ]
    },
    {
      "name": "Object_6",
      "primitives": [
        {
          "attributes": {
            "COLOR_0": 26,
            "NORMAL": 25,
            "POSITION": 24
          },
          "indices": 27,
          "material": 0,
          "mode": 4
        }
      ]
    },
    {
      "name": "Object_7",
      "primitives": [
        {
          "attributes": {
            "COLOR_0": 30,
            "NORMAL": 29,
            "POSITION": 28
          },
          "indices": 31,
          "material": 0,
          "mode": 4
        }
      ]
    },
    {
      "name": "Object_8",
      "primitives": [
        {
          "attributes": {
            "COLOR_0": 34,
            "NORMAL": 33,
            "POSITION": 32
          },
          "indices": 35,
          "material": 0,
          "mode": 4
        }
      ]
    },
    {
      "name": "Object_9",
      "primitives": [
        {
          "attributes": {
            "COLOR_0": 38,
            "NORMAL": 37,
            "POSITION": 36
          },
          "indices": 39,
          "material": 0,
          "mode": 4
        }
      ]
    },
    {
      "name": "Object_10",
      "primitives": [
        {
          "attributes": {
            "COLOR_0": 42,
            "NORMAL": 41,
            "POSITION": 40
          },
          "indices": 43,
          "material": 0,
          "mode": 4
        }
      ]
    },
    {
      "name": "Object_11",
      "primitives": [
        {
          "attributes": {
            "COLOR_0": 46,
            "NORMAL": 45,
            "POSITION": 44
          },
          "indices": 47,
          "material": 0,
          "mode": 4
        }
      ]
    },
    {
      "name": "Object_12",
      "primitives": [
        {
          "attributes": {
            "COLOR_0": 50,
            "NORMAL": 49,
            "POSITION": 48
          },
          "indices": 51,
          "material": 0,
          "mode": 4
        }
      ]
    },
    {
      "name": "Object_13",
      "primitives": [
        {
          "attributes": {
            "COLOR_0": 54,
            "NORMAL": 53,
            "POSITION": 52
          },
          "indices": 55,
          "material": 0,
          "mode": 4
        }
      ]
    },
    {
      "name": "Object_14",
      "primitives": [
        {
          "attributes": {
            "COLOR_0": 58,
            "NORMAL": 57,
            "POSITION": 56
          },
          "indices": 59,
          "material": 0,
          "mode": 4
        }
      ]
    },
    {
      "name": "Object_15",
      "primitives": [
        {
          "attributes": {
            "COLOR_0": 62,
            "NORMAL": 61,
            "POSITION": 60
          },
          "indices": 63,
          "material": 0,
          "mode": 4
        }
      ]
    },
    {
      "name": "Object_16",
      "primitives": [
        {
          "attributes": {
            "COLOR_0": 66,
            "NORMAL": 65,
            "POSITION": 64
          },
          "indices": 67,
          "material": 0,
          "mode": 4
        }
      ]
    },
    {
      "name": "Object_17",
      "primitives": [
        {
          "attributes": {
            "COLOR_0": 70,
            "NORMAL": 69,
            "POSITION": 68
          },
          "indices": 71,
          "material": 0,
          "mode": 4
        }
      ]
    },
    {
      "name": "Object_18",
      "primitives": [
        {
          "attributes": {
            "COLOR_0": 74,
            "NORMAL": 73,
            "POSITION": 72
          },
          "indices": 75,
          "material": 0,
          "mode": 4
        }
      ]
    },
    {
      "name": "Object_19",
      "primitives": [
        {
          "attributes": {
            "COLOR_0": 78,
            "NORMAL": 77,
            "POSITION": 76
          },
          "indices": 79,
          "material": 0,
          "mode": 4
        }
      ]
    },
    {
      "name": "Object_20",
      "primitives": [
        {
          "attributes": {
            "COLOR_0": 82,
            "NORMAL": 81,
            "POSITION": 80
          },
          "indices": 83,
          "material": 0,
          "mode": 4
        }
      ]
    },
    {
      "name": "Object_21",
      "primitives": [
        {
          "attributes": {
            "COLOR_0": 86,
            "NORMAL": 85,
            "POSITION": 84
          },
          "indices": 87,
          "material": 0,
          "mode": 4
        }
      ]
    },
    {
      "name": "Object_22",
      "primitives": [
        {
          "attributes": {
            "COLOR_0": 90,
            "NORMAL": 89,
            "POSITION": 88
          },
          "indices": 91,
          "material": 0,
          "mode": 4
        }
      ]
    },
    {
      "name": "Object_23",
      "primitives": [
        {
          "attributes": {
            "COLOR_0": 94,
            "NORMAL": 93,
            "POSITION": 92
          },
          "indices": 95,
          "material": 0,
          "mode": 4
        }
      ]
    },
    {
      "name": "Object_24",
      "primitives": [
        {
          "attributes": {
            "COLOR_0": 98,
            "NORMAL": 97,
            "POSITION": 96
          },
          "indices": 99,
          "material": 0,
          "mode": 4
        }
      ]
    },
    {
      "name": "Object_25",
      "primitives": [
        {
          "attributes": {
            "COLOR_0": 102,
            "NORMAL": 101,
            "POSITION": 100
          },
          "indices": 103,
          "material": 0,
          "mode": 4
        }
      ]
    },
    {
      "name": "Object_26",
      "primitives": [
        {
          "attributes": {
            "COLOR_0": 106,
            "NORMAL": 105,
            "POSITION": 104
          },
          "indices": 107,
          "material": 0,
          "mode": 4
        }
      ]
    },
    {
      "name": "Object_27",
      "primitives": [
        {
          "attributes": {
            "COLOR_0": 110,
            "NORMAL": 109,
            "POSITION": 108
          },
          "indices": 111,
          "material": 0,
          "mode": 4
        }
      ]
    },
    {
      "name": "Object_28",
      "primitives": [
        {
          "attributes": {
            "COLOR_0": 114,
            "NORMAL": 113,
            "POSITION": 112
          },
          "indices": 115,
          "material": 0,
          "mode": 4
        }
      ]
    },
    {
      "name": "Object_29",
      "primitives": [
        {
          "attributes": {
            "COLOR_0": 118,
            "NORMAL": 117,
            "POSITION": 116
          },
          "indices": 119,
          "material": 0,
          "mode": 4
        }
      ]
    },
    {
      "name": "Object_30",
      "primitives": [
        {
          "attributes": {
            "COLOR_0": 122,
            "NORMAL": 121,
            "POSITION": 120
          },
          "indices": 123,
          "material": 0,
          "mode": 4
        }
      ]
    },
    {
      "name": "Object_31",
      "primitives": [
        {
          "attributes": {
            "COLOR_0": 126,
            "NORMAL": 125,
            "POSITION": 124
          },
          "indices": 127,
          "material": 0,
          "mode": 4
        }
      ]
    },
    {
      "name": "Object_32",
      "primitives": [
        {
          "attributes": {
            "COLOR_0": 130,
            "NORMAL": 129,
            "POSITION": 128
          },
          "indices": 131,
          "material": 0,
          "mode": 4
        }
      ]
    }
  ],
  "nodes": [
    {
      "children": [
        1
      ],
      "matrix": [
        1.0,
        0.0,
        0.0,
        0.0,
        0.0,
        2.220446049250313e-16,
        -1.0,
        0.0,
        0.0,
        1.0,
        2.220446049250313e-16,
        0.0,
        0.0,
        0.0,
        0.0,
        1.0
      ],
      "name": "Sketchfab_model"
    },
    {
      "children": [
        2,
        3,
        4,
        5,
        6,
        7,
        8,
        9,
        10,
        11,
        12,
        13,
        14,
        15,
        16,
        17,
        18,
        19,
        20,
        21,
        22,
        23,
        24,
        25,
        26,
        27,
        28,
        29,
        30,
        31,
        32,
        33,
        34
      ],
      "name": "Geode"
    },
    {
      "mesh": 0,
      "name": "Object_2"
    },
    {
      "mesh": 1,
      "name": "Object_3"
    },
    {
      "mesh": 2,
      "name": "Object_4"
    },
    {
      "mesh": 3,
      "name": "Object_5"
    },
    {
      "mesh": 4,
      "name": "Object_6"
    },
    {
      "mesh": 5,
      "name": "Object_7"
    },
    {
      "mesh": 6,
      "name": "Object_8"
    },
    {
      "mesh": 7,
      "name": "Object_9"
    },
    {
      "mesh": 8,
      "name": "Object_10"
    },
    {
      "mesh": 9,
      "name": "Object_11"
    },
    {
      "mesh": 10,
      "name": "Object_12"
    },
    {
      "mesh": 11,
      "name": "Object_13"
    },
    {
      "mesh": 12,
      "name": "Object_14"
    },
    {
      "mesh": 13,
      "name": "Object_15"
    },
    {
      "mesh": 14,
      "name": "Object_16"
    },
    {
      "mesh": 15,
      "name": "Object_17"
    },
    {
      "mesh": 16,
      "name": "Object_18"
    },
    {
      "mesh": 17,
      "name": "Object_19"
    },
    {
      "mesh": 18,
      "name": "Object_20"
    },
    {
      "mesh": 19,
      "name": "Object_21"
    },
    {
      "mesh": 20,
      "name": "Object_22"
    },
    {
      "mesh": 21,
      "name": "Object_23"
    },
    {
      "mesh": 22,
      "name": "Object_24"
    },
    {
      "mesh": 23,
      "name": "Object_25"
    },
    {
      "mesh": 24,
      "name": "Object_26"
    },
    {
      "mesh": 25,
      "name": "Object_27"
    },
    {
      "mesh": 26,
      "name": "Object_28"
    },
    {
      "mesh": 27,
      "name": "Object_29"
    },
    {
      "mesh": 28,
      "name": "Object_30"
    },
    {
      "mesh": 29,
      "name": "Object_31"
    },
    {
      "mesh": 30,
      "name": "Object_32"
    },
    {
      "mesh": 31,
      "name": "Object_33"
    },
    {
      "mesh": 32,
      "name": "Object_34"
    }
  ],
  "scene": 0,
  "scenes": [
    {
      "name": "Sketchfab_Scene",
      "nodes": [
        0
      ]
    }
  ]
}
